<svg width="156" height="118" viewBox="0 0 156 118" fill="none" xmlns="http://www.w3.org/2000/svg">
<path d="M34.3403 45.7134V56.4284L31.941 57.8189L22.6574 52.4614L34.3403 45.7134Z" stroke="#010B17" stroke-width="1.104" stroke-linecap="round" stroke-linejoin="round"/>
<path d="M117.912 83.1906V110.455L150.588 91.588V64.3232L126.977 77.9556L117.912 83.1906Z" fill="white" stroke="#010B17" stroke-width="1.104" stroke-linecap="round" stroke-linejoin="round"/>
<path d="M90.0837 67.1157V94.3805L117.908 110.453V83.1885L113.681 80.7481L104.411 75.3906L92.4693 68.4926L90.0837 67.1157Z" fill="white" stroke="#010B17" stroke-width="1.104" stroke-linecap="round" stroke-linejoin="round"/>
<path d="M43.6805 40.3285V51.0981L52.9503 56.4693V45.6862L55.3497 44.2957V33.5942L52.7459 35.0938L43.6805 40.3285Z" stroke="#010B17" stroke-width="1.104" stroke-linecap="round" stroke-linejoin="round"/>
<path d="M38.7774 86.0093V113.274L71.4542 94.4069V67.1421L57.1811 75.3897L47.8428 80.7745L38.7774 86.0093Z" fill="white" stroke="#010B17" stroke-width="1.104" stroke-linecap="round" stroke-linejoin="round"/>
<path d="M10.9379 69.9409V97.2057L38.775 113.278V86.0137L34.5488 83.5733L25.2927 78.2159L13.3235 71.3179L10.9379 69.9409Z" fill="white" stroke="#010B17" stroke-width="1.104" stroke-linecap="round" stroke-linejoin="round"/>
<path d="M55.3547 33.5942V44.2957L62.0347 40.4512L64.6247 38.9516L55.3547 33.5942Z" fill="white" stroke="#010B17" stroke-width="1.104" stroke-linecap="round" stroke-linejoin="round"/>
<path d="M-26.157 48.5068V75.7716L1.66669 91.8444V64.5796L-2.55935 62.1392L-26.157 48.5068Z" fill="white" stroke="#010B17" stroke-width="1.104" stroke-linecap="round" stroke-linejoin="round"/>
<path d="M-26.1671 48.5068L-2.56943 62.1392L1.65662 64.5795L10.7358 59.3446L13.326 57.8449L22.6228 63.2026L20.0192 64.702L13.326 68.5602L10.9403 69.9369L13.326 71.3138L25.2951 78.2119L34.5512 83.5693L38.7774 86.0096L47.8428 80.7748L57.1811 75.3898L71.4542 67.1424L55.3544 57.8449L52.9549 56.4681L43.6852 51.097L43.617 51.0696L34.3468 56.4273L31.9475 57.8178L22.6639 52.4603L34.3468 45.7122L30.1207 43.272L15.8479 35.0379L6.50975 29.6396L-26.1671 48.5068Z" fill="#FF5145" stroke="#010B17" stroke-width="1.104" stroke-linecap="round" stroke-linejoin="round"/>
<path d="M13.3371 57.8457V68.5609L20.0303 64.7028L22.634 63.2034L13.3371 57.8457Z" stroke="#010B17" stroke-width="1.104" stroke-linecap="round" stroke-linejoin="round"/>
<path d="M1.66019 64.5802V91.845L10.9439 86.4874V69.9376L13.3295 68.5609V57.8457L10.7394 59.3454L1.66019 64.5802Z" fill="#D9D9D9" stroke="#010B17" stroke-width="1.104" stroke-linecap="round" stroke-linejoin="round"/>
<path d="M15.8497 24.2539V35.037L30.1224 43.271L34.3486 45.7113V56.4264L43.6187 51.0687L43.6869 51.096V40.3264L39.4607 37.8863L15.8497 24.2539Z" fill="white" stroke="#010B17" stroke-width="1.104" stroke-linecap="round" stroke-linejoin="round"/>
<path d="M52.9631 45.687V56.4701L55.3626 57.847L71.4625 67.1444V83.626L80.8008 89.0243V61.7595L76.5746 59.3194L67.2909 53.9617L55.3626 47.0775L52.9631 45.687Z" fill="white" stroke="#010B17" stroke-width="1.104" stroke-linecap="round" stroke-linejoin="round"/>
<path d="M64.6967 28.1967L73.9668 33.5543L76.3661 32.1638V21.4624L64.6967 28.1967Z" stroke="#010B17" stroke-width="1.104" stroke-linecap="round" stroke-linejoin="round"/>
<path d="M15.8459 24.254L39.4569 37.8864L43.6831 40.3265L52.7485 35.0918L55.3523 33.5922L64.6223 38.9496L62.0323 40.4492L55.3523 44.2937L52.9529 45.6842L55.3523 47.0747L67.2807 53.9589L76.5643 59.3166L80.7905 61.7566L89.8559 56.5218L92.4732 55.0087L101.743 60.3663L99.1261 61.8795L92.4732 65.7374L90.0875 67.1143L92.4732 68.4912L104.415 75.389L113.685 80.7467L117.912 83.1869L126.977 77.9519L150.588 64.3195L122.765 48.2471L113.467 53.6045L111.082 54.9813L101.798 49.6239L113.467 42.8894L85.6434 26.8168L76.36 32.1608L73.9607 33.5513L64.6905 28.1937L76.36 21.4594L48.5223 5.38672L15.8459 24.254Z" fill="#FF5145" stroke="#010B17" stroke-width="1.104" stroke-linecap="round" stroke-linejoin="round"/>
<path d="M92.4839 55.0112V65.7399L99.1367 61.8821L101.754 60.3689L92.4839 55.0112Z" fill="white" stroke="#010B17" stroke-width="1.104" stroke-linecap="round" stroke-linejoin="round"/>
<path d="M80.8048 61.7593V89.0241L90.1018 83.653V67.1168L92.4875 65.7399V55.0112L89.8702 56.5244L80.8048 61.7593Z" fill="white" stroke="#010B17" stroke-width="1.104" stroke-linecap="round" stroke-linejoin="round"/>
<path d="M101.801 49.6242L111.085 54.9816L113.47 53.6047V42.8896L101.801 49.6242Z" fill="white" stroke="#010B17" stroke-width="1.104" stroke-linecap="round" stroke-linejoin="round"/>
</svg>
