<svg width="48" height="48" viewBox="0 0 48 48" fill="none" xmlns="http://www.w3.org/2000/svg">
<g clip-path="url(#clip0_526_716)">
<path d="M23.9999 24L25.4141 22.5858C24.6331 21.8047 23.3668 21.8047 22.5857 22.5858L23.9999 24ZM21.9999 42C21.9999 43.1045 22.8954 44 23.9999 44C25.1045 44 25.9999 43.1045 25.9999 42H21.9999ZM39.8226 35.024C38.8528 35.5527 38.4952 36.7675 39.0239 37.7373C39.5526 38.7071 40.7674 39.0647 41.7372 38.536L39.8226 35.024ZM35.9999 18L36.0012 16H35.9999V18ZM33.4799 18L31.5436 18.5006C31.7718 19.3833 32.5682 20 33.4799 20V18ZM4.50125 33.9244C5.23269 34.752 6.49662 34.8301 7.32431 34.0986C8.152 33.3672 8.23003 32.1033 7.49859 31.2756L4.50125 33.9244ZM31.9999 32L33.4141 30.5858L25.4141 22.5858L23.9999 24L22.5857 25.4142L30.5857 33.4142L31.9999 32ZM23.9999 24L22.5857 22.5858L14.5857 30.5858L15.9999 32L17.4141 33.4142L25.4141 25.4142L23.9999 24ZM23.9999 24H21.9999V42H23.9999H25.9999V24H23.9999ZM40.7799 36.78L41.7372 38.536C44.0781 37.2598 45.9272 35.2405 46.9929 32.7967L45.1597 31.9972L43.3264 31.1978C42.6159 32.827 41.3831 34.1732 39.8226 35.024L40.7799 36.78ZM45.1597 31.9972L46.9929 32.7967C48.0586 30.3528 48.2802 27.6237 47.6225 25.04L45.6843 25.5333L43.7461 26.0267C44.1845 27.7491 44.0369 29.5686 43.3264 31.1978L45.1597 31.9972ZM45.6843 25.5333L47.6225 25.04C46.9649 22.4563 45.4656 20.1652 43.3613 18.5282L42.1333 20.1069L40.9053 21.6855C42.3082 22.7768 43.3077 24.3042 43.7461 26.0267L45.6843 25.5333ZM42.1333 20.1069L43.3613 18.5282C41.2569 16.8913 38.6673 16.0017 36.0012 16L35.9999 18L35.9986 20C37.776 20.0011 39.5024 20.5942 40.9053 21.6855L42.1333 20.1069ZM35.9999 18V16H33.4799V18V20H35.9999V18ZM33.4799 18L35.4163 17.4994C34.7352 14.8651 33.4659 12.4196 31.7036 10.3466L30.1798 11.642L28.656 12.9373C30.0266 14.5497 31.0139 16.4518 31.5436 18.5006L33.4799 18ZM30.1798 11.642L31.7036 10.3466C29.9414 8.27357 27.7322 6.62702 25.242 5.53072L24.4361 7.36118L23.6303 9.19165C25.5671 10.0443 27.2854 11.325 28.656 12.9373L30.1798 11.642ZM24.4361 7.36118L25.242 5.53072C22.7518 4.43442 20.0455 3.91691 17.3265 4.01709L17.4002 6.01573L17.4738 8.01438C19.5886 7.93646 21.6935 8.33897 23.6303 9.19165L24.4361 7.36118ZM17.4002 6.01573L17.3265 4.01709C14.6075 4.11727 11.9467 4.83253 9.5439 6.1091L10.4823 7.8753L11.4206 9.6415C13.2895 8.64861 15.359 8.09229 17.4738 8.01438L17.4002 6.01573ZM10.4823 7.8753L9.5439 6.1091C7.14115 7.38567 5.05905 9.19033 3.45415 11.3874L5.06916 12.5671L6.68418 13.7469C7.93243 12.038 9.55184 10.6344 11.4206 9.6415L10.4823 7.8753ZM5.06916 12.5671L3.45415 11.3874C1.84925 13.5845 0.763306 16.1168 0.277958 18.794L2.24588 19.1508L4.2138 19.5075C4.5913 17.4253 5.43592 15.4557 6.68418 13.7469L5.06916 12.5671ZM2.24588 19.1508L0.277958 18.794C-0.20739 21.4712 -0.07951 24.2235 0.651983 26.8442L2.57835 26.3065L4.50471 25.7688C3.93577 23.7305 3.83631 21.5898 4.2138 19.5075L2.24588 19.1508ZM2.57835 26.3065L0.651983 26.8442C1.38348 29.4648 2.69955 31.8855 4.50125 33.9244L5.99992 32.6L7.49859 31.2756C6.09726 29.6898 5.07365 27.8071 4.50471 25.7688L2.57835 26.3065Z" fill="#4285F4"/>
</g>
<defs>
<clipPath id="clip0_526_716">
<rect width="48" height="48" fill="white"/>
</clipPath>
</defs>
</svg>
