<svg width="50" height="51" viewBox="0 0 50 51" fill="none" xmlns="http://www.w3.org/2000/svg">
<path d="M22.9929 1.66429C24.2341 0.944284 25.7659 0.944285 27.0071 1.66429L35.8125 6.7722L44.6388 11.8439C45.8829 12.5589 46.6488 13.8854 46.6459 15.3203L46.625 25.5L46.6459 35.6797C46.6488 37.1146 45.8829 38.4411 44.6388 39.1561L35.8125 44.2278L27.0071 49.3357C25.7659 50.0557 24.2341 50.0557 22.9929 49.3357L14.1875 44.2278L5.36122 39.1561C4.11707 38.4411 3.35118 37.1146 3.35412 35.6797L3.375 25.5L3.35412 15.3203C3.35118 13.8854 4.11707 12.5589 5.36122 11.8439L14.1875 6.7722L22.9929 1.66429Z" fill="#F6B191"/>
<g clip-path="url(#clip0_379_1085)">
<path d="M25 19.25L29.1667 25.5L34.375 21.3333L32.2917 31.75H17.7083L15.625 21.3333L20.8333 25.5L25 19.25Z" fill="white" stroke="white" stroke-width="1.5" stroke-linecap="round" stroke-linejoin="round"/>
</g>
<defs>
<clipPath id="clip0_379_1085">
<rect width="25" height="25" fill="white" transform="translate(12.5 13)"/>
</clipPath>
</defs>
</svg>
