<svg width="50" height="51" viewBox="0 0 50 51" fill="none" xmlns="http://www.w3.org/2000/svg">
<path fill-rule="evenodd" clip-rule="evenodd" d="M29.9165 2.82124C27.3695 -0.273749 22.6305 -0.273745 20.0835 2.82124L19.2608 3.82092C17.9134 5.45821 15.8393 6.31732 13.7288 6.11235L12.4402 5.9872C8.45066 5.59975 5.09975 8.95066 5.4872 12.9402L5.61235 14.2288C5.81732 16.3393 4.95821 18.4134 3.32092 19.7608L2.32124 20.5835C-0.773749 23.1305 -0.773745 27.8695 2.32124 30.4165L3.32092 31.2392C4.95821 32.5866 5.81732 34.6607 5.61235 36.7712L5.4872 38.0598C5.09975 42.0493 8.45066 45.4003 12.4402 45.0128L13.7288 44.8876C15.8393 44.6827 17.9134 45.5418 19.2608 47.1791L20.0835 48.1788C22.6305 51.2738 27.3695 51.2738 29.9165 48.1788L30.7392 47.1791C32.0866 45.5418 34.1607 44.6827 36.2712 44.8876L37.5598 45.0128C41.5493 45.4003 44.9003 42.0493 44.5128 38.0598L44.3876 36.7712C44.1827 34.6607 45.0418 32.5866 46.6791 31.2392L47.6788 30.4165C50.7738 27.8695 50.7738 23.1305 47.6788 20.5835L46.6791 19.7608C45.0418 18.4134 44.1827 16.3393 44.3876 14.2288L44.5128 12.9402C44.9003 8.95066 41.5493 5.59975 37.5598 5.9872L36.2712 6.11235C34.1607 6.31732 32.0866 5.45821 30.7392 3.82092L29.9165 2.82124ZM26.4549 8.08266C25.8949 6.82156 24.1051 6.82156 23.5451 8.08266L21.1795 13.4102C20.8354 14.1853 19.9441 14.5544 19.1527 14.2498L13.7128 12.1553C12.4251 11.6596 11.1596 12.9251 11.6553 14.2128L13.7498 19.6527C14.0544 20.4441 13.6853 21.3354 12.9102 21.6795L7.58266 24.0451C6.32156 24.6051 6.32156 26.3949 7.58266 26.9549L12.9102 29.3205C13.6853 29.6646 14.0544 30.5559 13.7498 31.3473L11.6553 36.7872C11.1596 38.0749 12.4251 39.3404 13.7128 38.8447L19.1527 36.7502C19.9441 36.4456 20.8354 36.8147 21.1795 37.5898L23.5451 42.9173C24.1051 44.1784 25.8949 44.1784 26.4549 42.9173L28.8205 37.5898C29.1646 36.8147 30.0559 36.4456 30.8473 36.7502L36.2872 38.8447C37.5749 39.3404 38.8404 38.0749 38.3447 36.7872L36.2502 31.3473C35.9456 30.5559 36.3147 29.6646 37.0898 29.3205L42.4173 26.9549C43.6784 26.3949 43.6784 24.6051 42.4173 24.0451L37.0898 21.6795C36.3147 21.3354 35.9456 20.4441 36.2502 19.6527L38.3447 14.2128C38.8404 12.9251 37.5749 11.6596 36.2872 12.1553L30.8473 14.2498C30.0559 14.5544 29.1646 14.1853 28.8205 13.4102L26.4549 8.08266Z" fill="#FAAB00"/>
</svg>
